<?xml version="1.0" encoding="UTF-8"?>
<svg id="uuid-f2f9d9d0-7cec-45f4-90b3-39b216747ff5" data-name="Layer 4" xmlns="http://www.w3.org/2000/svg" viewBox="0 0 1024.5 1024.5">
  <g id="uuid-d0a2c965-bdd1-42b9-bd9a-d3803ad5bd0f" data-name="ship 2">
    <polygon points="882.02 284.69 882.02 227.81 825.14 227.81 825.14 170.92 768.25 170.92 768.25 114.03 711.36 114.03 711.36 57.15 654.47 57.15 597.58 57.15 597.58 .25 540.69 .25 540.69 57.15 540.69 114.03 540.69 170.92 540.69 227.81 540.69 284.69 540.69 341.59 540.69 398.48 540.69 455.36 540.69 512.25 540.69 569.14 540.69 626.02 540.69 682.92 597.58 682.92 597.58 626.02 654.47 626.02 711.36 626.02 768.25 626.02 825.14 626.02 825.14 682.92 882.02 682.92 882.02 626.02 882.02 569.14 938.91 569.14 938.91 512.25 938.91 455.36 938.91 398.48 938.91 341.59 938.91 284.69 882.02 284.69"/>
    <polygon points="825.14 739.81 768.25 739.81 768.25 796.69 711.36 796.69 654.47 796.69 597.58 796.69 540.69 796.69 483.81 796.69 426.92 796.69 426.92 739.81 370.03 739.81 313.14 739.81 256.25 739.81 199.36 739.81 142.48 739.81 142.48 796.69 199.36 796.69 199.36 853.58 199.36 910.47 256.25 910.47 256.25 967.36 313.14 967.36 370.03 967.36 370.03 1024.25 426.92 1024.25 483.81 1024.25 540.69 1024.25 597.58 1024.25 654.47 1024.25 654.47 967.36 711.36 967.36 768.25 967.36 768.25 910.47 825.14 910.47 825.14 853.58 882.02 853.58 882.02 796.69 938.91 796.69 938.91 739.81 882.02 739.81 825.14 739.81"/>
    <polygon points="199.36 682.92 256.25 682.92 313.14 682.92 370.03 682.92 426.92 682.92 483.81 682.92 483.81 626.02 483.81 569.14 483.81 512.25 483.81 455.36 483.81 398.48 483.81 341.59 483.81 284.69 483.81 227.81 483.81 170.92 483.81 114.03 426.92 114.03 426.92 170.92 426.92 227.81 370.03 227.81 370.03 284.69 370.03 341.59 313.14 341.59 313.14 398.48 313.14 455.36 256.25 455.36 256.25 512.25 199.36 512.25 199.36 569.14 142.48 569.14 142.48 626.02 85.59 626.02 85.59 682.92 142.48 682.92 199.36 682.92"/>
  </g>
</svg>